<svg width="63" height="62" viewBox="0 0 63 62" fill="none" xmlns="http://www.w3.org/2000/svg">
<path d="M28.7783 28.4531L25.0574 14.5665C23.8731 13.4081 21.7186 11.3497 16.5667 10.2846C10.1268 8.95325 1.50019 13.1621 1.52355 25.3835C1.54224 35.1606 12.2588 43.6594 17.6148 46.6866L41.0045 59.9596C41.9573 60.5003 43.1655 60.178 43.7152 59.2304C47.6176 52.5041 54.5296 40.4253 57.3482 34.8805C61.1944 27.3145 62.1687 19.9909 61.1559 14.2539C60.1431 8.51696 54.4706 0.65527 44.7525 1.57264C36.9781 2.30654 34.7703 9.01247 34.0077 12.1683L37.7286 26.0549L51.5086 22.3626L53.6725 30.4385L39.8925 34.1308L43.2428 46.6342L34.2925 49.0324L30.9422 36.5291L17.8132 40.047L15.6492 31.971L28.7783 28.4531Z" fill="#C4C4C4" stroke="black" stroke-width="2"/>
</svg>
