<svg width="1280" height="128" viewBox="0 0 1280 128" fill="none" xmlns="http://www.w3.org/2000/svg">
<path d="M1281 111.026H1263.78C1262.37 111.026 1261.03 110.453 1259.94 109.565C1257.37 107.468 1252.01 103.855 1245.62 103.855C1239.76 103.855 1235.09 106.733 1232.75 108.529C1231.64 109.372 1230.32 109.934 1228.93 109.934H1222.52C1220.95 109.934 1219.46 109.229 1218.43 108.043C1213.64 102.557 1199 87.0208 1186.7 87.0208C1174.82 87.0208 1160.45 108.532 1142.38 108.532H1130.81C1117.14 108.532 1115.48 126 1115.48 126L1108.77 2.00001L1104.48 126L1099.57 114.221C1098.77 112.286 1096.88 111.026 1094.78 111.026H1086.27C1084.65 111.026 1083.13 110.275 1082.11 109.017C1078.86 105.016 1071.46 96.4334 1067.77 96.4334C1064.18 96.4334 1057.94 104.594 1055.03 108.71C1054.01 110.141 1052.38 111.026 1050.63 111.026L1007.78 111.026C1006.37 111.026 1005.03 110.453 1003.94 109.565C1001.37 107.468 996.011 103.855 989.616 103.855C983.765 103.855 979.092 106.733 976.746 108.529C975.645 109.372 974.317 109.934 972.93 109.934H966.521C964.946 109.934 963.465 109.229 962.429 108.043C957.643 102.557 943 87.0208 930.696 87.0208C918.823 87.0208 904.451 108.532 886.38 108.532H874.814C861.139 108.532 859.476 126 859.476 126L852.774 2L848.48 126L843.574 114.221C842.769 112.286 840.877 111.026 838.78 111.026H830.272C828.651 111.026 827.129 110.275 826.108 109.017C822.857 105.016 815.456 96.4334 811.771 96.4334C808.178 96.4334 801.944 104.594 799.028 108.71C798.015 110.141 796.381 111.026 794.627 111.026H751.777C750.372 111.026 749.031 110.453 747.941 109.565C745.37 107.468 740.011 103.855 733.616 103.855C727.765 103.855 723.092 106.733 720.746 108.529C719.645 109.372 718.317 109.934 716.93 109.934H710.521C708.946 109.934 707.464 109.229 706.429 108.043C701.643 102.557 687 87.0208 674.696 87.0208C662.823 87.0208 648.451 108.532 630.38 108.532H618.814C605.139 108.532 603.476 126 603.476 126L596.774 2L592.48 126L587.574 114.221C586.769 112.286 584.877 111.026 582.78 111.026H574.272C572.651 111.026 571.129 110.275 570.108 109.017C566.857 105.016 559.456 96.4334 555.771 96.4334C552.178 96.4334 545.944 104.594 543.028 108.71C542.015 110.141 540.381 111.026 538.627 111.026H495.777C494.372 111.026 493.031 110.453 491.941 109.565C489.37 107.468 484.011 103.855 477.616 103.855C471.765 103.855 467.092 106.733 464.746 108.529C463.645 109.372 462.317 109.934 460.93 109.934H454.521C452.946 109.934 451.464 109.229 450.429 108.043C445.642 102.557 431 87.0208 418.696 87.0208C406.823 87.0208 392.451 108.532 374.38 108.532H362.814C349.139 108.532 347.476 126 347.476 126L340.774 2L336.48 126L331.574 114.221C330.769 112.286 328.877 111.026 326.78 111.026H318.272C316.651 111.026 315.129 110.275 314.108 109.017C310.857 105.016 303.456 96.4334 299.771 96.4334C296.178 96.4334 289.944 104.594 287.028 108.71C286.015 110.141 284.381 111.026 282.627 111.026H239.777C238.372 111.026 237.031 110.453 235.941 109.565C233.37 107.468 228.011 103.855 221.616 103.855C215.765 103.855 211.092 106.733 208.746 108.529C207.645 109.372 206.317 109.934 204.93 109.934H198.521C196.946 109.934 195.464 109.229 194.429 108.043C189.642 102.557 175 87.0208 162.696 87.0208C150.823 87.0208 136.451 108.532 118.38 108.532H106.814C93.1393 108.532 91.4764 126 91.4764 126L84.7738 2L80.4799 126L75.5742 114.221C74.7685 112.286 72.8773 111.026 70.7801 111.026H62.2721C60.6512 111.026 59.1291 110.275 58.1076 109.017C54.8574 105.016 47.4558 96.4334 43.771 96.4334C40.178 96.4334 33.9441 104.594 31.0284 108.71C30.0148 110.141 28.3812 111.026 26.6266 111.026H1.00049" stroke="black" stroke-width="2.5" stroke-linecap="round" stroke-linejoin="round"/>
</svg>
