<svg width="1280" height="128" viewBox="0 0 1280 128" fill="none" xmlns="http://www.w3.org/2000/svg">
<path d="M1281 110.827H1263.78C1262.37 110.827 1261.03 110.253 1259.94 109.364C1257.37 107.265 1252.01 103.649 1245.62 103.649C1239.76 103.649 1235.09 106.53 1232.75 108.327C1231.64 109.171 1230.32 109.733 1228.93 109.733H1222.52C1220.95 109.733 1219.46 109.028 1218.43 107.841C1213.64 102.35 1199 86.7994 1186.7 86.7994C1174.82 86.7994 1160.45 108.33 1142.38 108.33H1130.81C1117.14 108.33 1115.48 125.814 1115.48 125.814L1108.77 1.70118L1104.48 125.814L1099.57 114.024C1098.77 112.088 1096.88 110.827 1094.78 110.827H1086.27C1084.65 110.827 1083.13 110.075 1082.11 108.816C1078.86 104.811 1071.46 96.2206 1067.77 96.2206C1064.18 96.2206 1057.94 104.389 1055.03 108.508C1054.01 109.941 1052.38 110.827 1050.63 110.827L1007.78 110.827C1006.37 110.827 1005.03 110.253 1003.94 109.364C1001.37 107.265 996.011 103.649 989.616 103.649C983.765 103.649 979.092 106.53 976.746 108.327C975.645 109.171 974.317 109.733 972.93 109.733H966.521C964.946 109.733 963.465 109.028 962.429 107.841C957.643 102.35 943 86.7993 930.696 86.7993C918.823 86.7993 904.451 108.33 886.38 108.33H874.814C861.139 108.33 859.476 125.814 859.476 125.814L852.774 1.70117L848.48 125.814L843.574 114.024C842.769 112.088 840.877 110.827 838.78 110.827H830.272C828.651 110.827 827.129 110.075 826.108 108.816C822.857 104.811 815.456 96.2206 811.771 96.2206C808.178 96.2206 801.944 104.389 799.028 108.508C798.015 109.941 796.381 110.827 794.627 110.827H751.777C750.372 110.827 749.031 110.253 747.941 109.364C745.37 107.265 740.011 103.649 733.616 103.649C727.765 103.649 723.092 106.53 720.746 108.327C719.645 109.171 718.317 109.733 716.93 109.733H710.521C708.946 109.733 707.464 109.028 706.429 107.841C701.643 102.35 687 86.7993 674.696 86.7993C662.823 86.7993 648.451 108.33 630.38 108.33H618.814C605.139 108.33 603.476 125.814 603.476 125.814L596.774 1.70117L592.48 125.814L587.574 114.024C586.769 112.088 584.877 110.827 582.78 110.827H574.272C572.651 110.827 571.129 110.075 570.108 108.816C566.857 104.811 559.456 96.2206 555.771 96.2206C552.178 96.2206 545.944 104.389 543.028 108.508C542.015 109.941 540.381 110.827 538.627 110.827H495.777C494.372 110.827 493.031 110.253 491.941 109.364C489.37 107.265 484.011 103.649 477.616 103.649C471.765 103.649 467.092 106.53 464.746 108.327C463.645 109.171 462.317 109.733 460.93 109.733H454.521C452.946 109.733 451.464 109.028 450.429 107.841C445.642 102.35 431 86.7993 418.696 86.7993C406.823 86.7993 392.451 108.33 374.38 108.33H362.814C349.139 108.33 347.476 125.814 347.476 125.814L340.774 1.70117L336.48 125.814L331.574 114.024C330.769 112.088 328.877 110.827 326.78 110.827H318.272C316.651 110.827 315.129 110.075 314.108 108.816C310.857 104.811 303.456 96.2206 299.771 96.2206C296.178 96.2206 289.944 104.389 287.028 108.508C286.015 109.941 284.381 110.827 282.627 110.827H239.777C238.372 110.827 237.031 110.253 235.941 109.364C233.37 107.265 228.011 103.649 221.616 103.649C215.765 103.649 211.092 106.53 208.746 108.327C207.645 109.171 206.317 109.733 204.93 109.733H198.521C196.946 109.733 195.464 109.028 194.429 107.841C189.642 102.35 175 86.7993 162.696 86.7993C150.823 86.7993 136.451 108.33 118.38 108.33H106.814C93.1393 108.33 91.4764 125.814 91.4764 125.814L84.7738 1.70117L80.4799 125.814L75.5742 114.024C74.7685 112.088 72.8773 110.827 70.7801 110.827H62.2721C60.6512 110.827 59.1291 110.075 58.1076 108.816C54.8574 104.811 47.4558 96.2206 43.771 96.2206C40.178 96.2206 33.9441 104.389 31.0284 108.508C30.0148 109.941 28.3812 110.827 26.6266 110.827H1.00049" stroke="#E25B61" stroke-width="2.5" stroke-linecap="round" stroke-linejoin="round"/>
</svg>
