<svg width="79" height="79" viewBox="0 0 79 79" fill="none" xmlns="http://www.w3.org/2000/svg">
<g clip-path="url(#clip0_1131_1922)">
<path d="M38.9208 33.5706L29.3751 20.648C28.191 19.49 24.5348 16.9078 19.383 15.8433C12.9433 14.5127 4.3166 18.7211 4.33914 30.9395C4.35718 40.7142 15.073 49.2101 20.4286 52.2362L43.8173 65.5046C44.77 66.045 45.9779 65.7227 46.5277 64.7754C50.4304 58.0506 57.3432 45.9741 60.1622 40.4304C64.0088 32.8661 64.9836 25.5442 63.9712 19.8087C62.9588 14.0732 57.2869 6.21386 47.5689 7.13165C39.7946 7.86588 36.3254 14.3596 35.5627 17.5147L48.3592 37.4808L37.6134 39.0973L44.2015 49.7554L49.6517 47.3196L45.6501 58.6847L32.748 51.8489L38.7874 51.2061L29.0703 35.1671L38.9208 33.5706Z" fill="#C4C4C4" stroke="#DACD9C" stroke-width="2"/>
</g>
<defs>
<clipPath id="clip0_1131_1922">
<rect width="64" height="64" fill="white" transform="translate(0 16.5645) rotate(-15)"/>
</clipPath>
</defs>
</svg>
