<svg width="72" height="72" viewBox="0 0 72 72" fill="none" xmlns="http://www.w3.org/2000/svg">
<g filter="url(#filter0_d_1131_1924)">
<path d="M26.4201 45.1216L21.21 43.7255L22.5372 38.7725L27.7986 40.1823L28.5017 37.558C23.4376 35.4119 20.6425 29.8697 21.9474 24.2114C23.1377 19.0504 27.9189 15.306 32.5851 14.9666C33.2764 14.9163 33.7843 14.2775 33.5045 13.6433C32.1596 10.5948 28.3221 4.04934 21.9556 2.34344C7.88852 -1.42581 -0.251691 13.5113 11.0014 36.7536C15.8061 46.6772 18.1789 53.3045 23.3047 61.4314C23.8224 62.2521 24.8653 62.5684 25.7383 62.1448C33.594 58.3327 42.6494 50.8443 49.7304 46.0589C67.7758 33.8637 72.7931 15.9657 55.5618 11.3484C48.8199 9.5418 43.1799 12.9182 40.3637 15.4001C39.8411 15.8607 40.012 16.6905 40.6061 17.0542C44.7904 19.6162 47.583 25.5152 45.9807 30.6511C44.2575 36.1745 39.5587 39.3682 33.7095 38.9534L33.0063 41.5777L38.2653 42.9869L36.9382 47.9399L31.6791 46.5307L30.3486 51.4962L25.0896 50.0871L26.4201 45.1216Z" fill="#C4C4C4"/>
<path d="M26.4201 45.1216L21.21 43.7255L22.5372 38.7725L27.7986 40.1823L28.5017 37.558C23.4376 35.4119 20.6425 29.8697 21.9474 24.2114C23.1377 19.0504 27.9189 15.306 32.5851 14.9666C33.2764 14.9163 33.7843 14.2775 33.5045 13.6433C32.1596 10.5948 28.3221 4.04934 21.9556 2.34344C7.88852 -1.42581 -0.251691 13.5113 11.0014 36.7536C15.8061 46.6772 18.1789 53.3045 23.3047 61.4314C23.8224 62.2521 24.8653 62.5684 25.7383 62.1448C33.594 58.3327 42.6494 50.8443 49.7304 46.0589C67.7758 33.8637 72.7931 15.9657 55.5618 11.3484C48.8199 9.5418 43.1799 12.9182 40.3637 15.4001C39.8411 15.8607 40.012 16.6905 40.6061 17.0542C44.7904 19.6162 47.583 25.5152 45.9807 30.6511C44.2575 36.1745 39.5587 39.3682 33.7095 38.9534L33.0063 41.5777L38.2653 42.9869L36.9382 47.9399L31.6791 46.5307L30.3486 51.4962L25.0896 50.0871L26.4201 45.1216Z" stroke="#9A272C" stroke-width="2" stroke-linejoin="round"/>
</g>
<defs>
<filter id="filter0_d_1131_1924" x="0.711914" y="0.762695" width="70.4714" height="70.5703" filterUnits="userSpaceOnUse" color-interpolation-filters="sRGB">
<feFlood flood-opacity="0" result="BackgroundImageFix"/>
<feColorMatrix in="SourceAlpha" type="matrix" values="0 0 0 0 0 0 0 0 0 0 0 0 0 0 0 0 0 0 127 0" result="hardAlpha"/>
<feOffset dy="4"/>
<feGaussianBlur stdDeviation="2"/>
<feComposite in2="hardAlpha" operator="out"/>
<feColorMatrix type="matrix" values="0 0 0 0 0 0 0 0 0 0 0 0 0 0 0 0 0 0 0.25 0"/>
<feBlend mode="normal" in2="BackgroundImageFix" result="effect1_dropShadow_1131_1924"/>
<feBlend mode="normal" in="SourceGraphic" in2="effect1_dropShadow_1131_1924" result="shape"/>
</filter>
</defs>
</svg>
